<svg width="6001" height="6000" viewBox="0 0 6001 6000" fill="none" xmlns="http://www.w3.org/2000/svg">
<rect x="2991" width="20" height="6000" fill="url(#paint0_radial_109_140)"/>
<rect x="3304.64" y="15.3906" width="20" height="6000" transform="rotate(6 3304.64 15.3906)" fill="url(#paint1_radial_109_140)"/>
<rect x="3614.95" y="63.4805" width="20" height="6000" transform="rotate(12 3614.95 63.4805)" fill="url(#paint2_radial_109_140)"/>
<rect x="3918.54" y="143.742" width="20" height="6000" transform="rotate(18 3918.54 143.742)" fill="url(#paint3_radial_109_140)"/>
<rect x="1" y="3010" width="20" height="6000" transform="rotate(-90 1 3010)" fill="url(#paint4_radial_109_140)"/>
<rect x="4212.07" y="255.299" width="20" height="6000" transform="rotate(24 4212.07 255.299)" fill="url(#paint5_radial_109_140)"/>
<rect x="4492.34" y="396.926" width="20" height="6000" transform="rotate(30 4492.34 396.926)" fill="url(#paint6_radial_109_140)"/>
<rect x="4492.34" y="396.926" width="20" height="6000" transform="rotate(30 4492.34 396.926)" fill="url(#paint7_radial_109_140)"/>
<rect x="4756.27" y="567.072" width="20" height="6000" transform="rotate(36 4756.27 567.072)" fill="url(#paint8_radial_109_140)"/>
<rect x="5000.96" y="763.875" width="20" height="6000" transform="rotate(42 5000.96 763.875)" fill="url(#paint9_radial_109_140)"/>
<rect x="5223.74" y="985.178" width="20" height="6000" transform="rotate(48 5223.74 985.178)" fill="url(#paint10_radial_109_140)"/>
<rect x="5422.17" y="1228.55" width="20" height="6000" transform="rotate(54 5422.17 1228.55)" fill="url(#paint11_radial_109_140)"/>
<rect x="5594.08" y="1491.34" width="20" height="6000" transform="rotate(60 5594.08 1491.34)" fill="url(#paint12_radial_109_140)"/>
<rect x="5737.57" y="1770.65" width="20" height="6000" transform="rotate(66 5737.57 1770.65)" fill="url(#paint13_radial_109_140)"/>
<rect x="5851.08" y="2063.44" width="20" height="6000" transform="rotate(72 5851.08 2063.44)" fill="url(#paint14_radial_109_140)"/>
<rect x="5933.36" y="2366.48" width="20" height="6000" transform="rotate(78 5933.36 2366.48)" fill="url(#paint15_radial_109_140)"/>
<rect x="5983.52" y="2676.47" width="20" height="6000" transform="rotate(84 5983.52 2676.47)" fill="url(#paint16_radial_109_140)"/>
<path fill-rule="evenodd" clip-rule="evenodd" d="M3050 4.37114e-06L3010.11 0H2990.11H2950V190.439C2966.67 190.147 2983.37 190 3000.11 190C3016.78 190 3033.41 190.146 3050 190.436V4.37114e-06ZM3283.91 204.205C3290.55 204.873 3297.18 205.564 3303.8 206.278L3323.64 17.4812L3303.75 15.3906L3283.91 204.205ZM3574.63 248.998C3581.16 250.36 3587.68 251.744 3594.2 253.151L3633.63 67.6387L3614.07 63.4805L3574.63 248.998ZM3859.02 324.198C3865.37 326.241 3871.71 328.307 3878.04 330.395L3936.67 149.923L3917.65 143.742L3859.02 324.198ZM4133.84 429.026C4139.94 431.729 4146.02 434.453 4152.09 437.198L4229.46 263.434L4211.19 255.299L4133.84 429.026ZM4361.43 542.625C4390.43 558.786 4419.1 575.446 4447.45 592.596L4543.17 426.794L4508.77 406.926L4491.45 396.926L4457.02 377.058L4361.43 542.625ZM4642.69 722.17C4648.09 726.086 4653.47 730.02 4658.84 733.973L4771.56 578.828L4755.38 567.072L4642.69 722.17ZM4871.24 906.965C4876.19 911.422 4881.14 915.896 4886.06 920.387L5014.94 777.258L5000.07 763.875L4871.24 906.965ZM5079.22 1114.51C5083.68 1119.46 5088.13 1124.43 5092.56 1129.41L5236.24 1000.04L5222.86 985.178L5079.22 1114.51ZM5264.4 1342.54C5268.32 1347.93 5272.23 1353.33 5276.12 1358.75L5433.04 1244.73L5421.29 1228.55L5264.4 1342.54ZM5404.37 1554.05C5421.5 1582.68 5438.14 1611.64 5454.27 1640.91L5623.2 1543.38L5573.12 1456.62L5404.37 1554.05ZM5558.32 1850.06C5561.04 1856.15 5563.74 1862.25 5566.41 1868.36L5744.82 1788.93L5736.68 1770.65L5558.32 1850.06ZM5663.64 2124.05C5665.7 2130.39 5667.73 2136.74 5669.75 2143.1L5856.37 2082.46L5850.19 2063.44L5663.64 2124.05ZM5739.44 2407.51C5740.82 2414.03 5742.18 2420.56 5743.51 2427.1L5936.64 2386.05L5932.48 2366.48L5739.44 2407.51ZM5784.99 2697.24C5785.68 2703.87 5786.34 2710.5 5786.99 2717.14L5984.72 2696.36L5982.63 2676.47L5784.99 2697.24ZM5799.83 2950C5800.02 2963.31 5800.11 2976.64 5800.11 2990C5800.11 3010.05 5799.9 3030.05 5799.48 3050H6000V3010H6000.11V2990H6000V2950H5799.83ZM5785 3282.66C5784.31 3289.3 5783.6 3295.92 5782.86 3302.55L5982.52 3323.53L5984.61 3303.64L5785 3282.66ZM5739.53 3572.08C5738.15 3578.61 5736.74 3585.12 5735.32 3591.63L5932.36 3633.52L5936.52 3613.95L5739.53 3572.08ZM5663.93 3855.05C5661.87 3861.39 5659.79 3867.73 5657.69 3874.05L5850.08 3936.56L5856.26 3917.54L5663.93 3855.05ZM5559.01 4128.4C5556.3 4134.49 5553.56 4140.57 5550.8 4146.64L5736.57 4229.35L5744.7 4211.07L5559.01 4128.4ZM5445.69 4354.54C5429.48 4383.54 5412.76 4412.21 5395.56 4440.56L5573.19 4543.11L5593.07 4508.66L5603.07 4491.34L5622.96 4456.89L5445.69 4354.54ZM5266.6 4634.42C5262.68 4639.82 5258.75 4645.2 5254.79 4650.56L5421.17 4771.45L5432.93 4755.27L5266.6 4634.42ZM5082.6 4861.73C5078.14 4866.69 5073.67 4871.63 5069.18 4876.55L5222.74 5014.82L5236.13 4999.96L5082.6 4861.73ZM4876.09 5068.66C4871.14 5073.13 4866.18 5077.58 4861.2 5082.02L4999.96 5236.13L5014.82 5222.74L4876.09 5068.66ZM4649.28 5253.03C4643.9 5256.96 4638.5 5260.88 4633.09 5264.77L4755.27 5432.93L4771.45 5421.17L4649.28 5253.03ZM4439.07 5392.45C4410.49 5409.61 4381.58 5426.27 4352.35 5442.42L4456.66 5623.1L4543.34 5573.06L4439.07 5392.45ZM4144.58 5546.18C4138.5 5548.91 4132.41 5551.62 4126.3 5554.3L4211.08 5744.7L4229.35 5736.57L4144.58 5546.18ZM3872.06 5651.57C3865.73 5653.64 3859.39 5655.69 3853.03 5657.72L3917.54 5856.26L3936.56 5850.08L3872.06 5651.57ZM3590.02 5727.75C3583.51 5729.14 3576.99 5730.52 3570.45 5731.87L3613.95 5936.52L3633.52 5932.36L3590.02 5727.75ZM3301.61 5773.96C3294.99 5774.67 3288.35 5775.35 3281.72 5776.02L3303.64 5984.61L3323.53 5982.52L3301.61 5773.96ZM3050 5789.56C3033.41 5789.85 3016.78 5790 3000.11 5790C2983.37 5790 2966.67 5789.85 2950 5789.56V6000H2990.11H3010.11H3050V5789.56ZM2718.4 5776C2711.76 5775.34 2705.13 5774.65 2698.5 5773.95L2676.58 5982.52L2696.47 5984.61L2718.4 5776ZM2429.66 5731.85C2423.13 5730.5 2416.61 5729.12 2410.09 5727.72L2366.6 5932.37L2386.16 5936.52L2429.66 5731.85ZM2147.09 5657.69C2140.74 5655.66 2134.4 5653.61 2128.06 5651.54L2063.55 5850.08L2082.57 5856.26L2147.09 5657.69ZM1873.83 5554.26C1867.73 5551.58 1861.63 5548.87 1855.55 5546.14L1770.77 5736.57L1789.04 5744.71L1873.83 5554.26ZM1647.51 5442.22C1618.47 5426.16 1589.73 5409.6 1561.33 5392.56L1457.02 5573.21L1491.45 5593.08L1508.77 5603.08L1543.17 5622.95L1647.51 5442.22ZM1367.06 5264.72C1361.65 5260.82 1356.25 5256.91 1350.87 5252.98L1228.67 5421.17L1244.85 5432.93L1367.06 5264.72ZM1138.97 5081.96C1133.99 5077.53 1129.02 5073.08 1124.07 5068.61L985.29 5222.74L1000.15 5236.13L1138.97 5081.96ZM930.998 4876.5C926.505 4871.57 922.029 4866.63 917.571 4861.67L763.987 4999.96L777.37 5014.82L930.998 4876.5ZM745.397 4650.51C741.44 4645.14 737.502 4639.77 733.582 4634.37L567.185 4755.27L578.94 4771.45L745.397 4650.51ZM604.785 4440.76C587.474 4412.24 570.658 4383.39 554.349 4354.21L376.965 4456.62L427.052 4543.38L604.785 4440.76ZM449.4 4146.6C446.644 4140.53 443.909 4134.45 441.196 4128.36L255.41 4211.07L263.544 4229.35L449.4 4146.6ZM342.525 3874.02C340.422 3867.69 338.342 3861.36 336.283 3855.02L143.854 3917.54L150.034 3936.56L342.525 3874.02ZM264.9 3591.61C263.474 3585.1 262.072 3578.58 260.692 3572.06L63.5913 3613.95L67.7495 3633.52L264.9 3591.61ZM217.358 3302.53C216.623 3295.91 215.911 3289.28 215.221 3282.65L15.5023 3303.64L17.5928 3323.53L217.358 3302.53ZM200.742 3050C200.322 3030.05 200.112 3010.05 200.112 2990C200.112 2976.64 200.205 2963.31 200.392 2950H0.000492652L0.000488281 3050H200.742ZM213.236 2717.15C213.878 2710.51 214.543 2703.88 215.232 2697.25L17.4783 2676.47L15.3877 2696.36L213.236 2717.15ZM256.708 2427.12C258.042 2420.58 259.399 2414.06 260.778 2407.54L67.6342 2366.48L63.4759 2386.05L256.708 2427.12ZM330.464 2143.13C332.479 2136.77 334.516 2130.42 336.575 2124.09L149.919 2063.44L143.739 2082.46L330.464 2143.13ZM433.796 1868.4C436.47 1862.29 439.165 1856.19 441.881 1850.11L263.429 1770.65L255.294 1788.93L433.796 1868.4ZM546.073 1640.7C562.104 1611.61 578.637 1582.83 595.66 1554.38L426.81 1456.89L406.922 1491.34L396.922 1508.66L377.034 1543.11L546.073 1640.7ZM724.068 1358.8C727.956 1353.38 731.864 1347.98 735.79 1342.59L578.826 1228.55L567.07 1244.73L724.068 1358.8ZM907.61 1129.46C912.042 1124.48 916.492 1119.52 920.958 1114.57L777.256 985.177L763.874 1000.04L907.61 1129.46ZM1114.1 920.443C1119.03 915.951 1123.97 911.476 1128.93 907.019L1000.04 763.874L985.176 777.257L1114.1 920.443ZM1341.31 734.026C1346.68 730.073 1352.06 726.138 1357.46 722.223L1244.73 567.072L1228.55 578.827L1341.31 734.026ZM1552.43 592.809C1580.94 575.55 1609.79 558.786 1638.96 542.528L1543.34 376.902L1456.66 426.944L1552.43 592.809ZM1848.04 437.239C1854.11 434.494 1860.2 431.77 1866.29 429.067L1788.93 255.297L1770.66 263.431L1848.04 437.239ZM2122.09 330.428C2128.42 328.339 2134.76 326.273 2141.11 324.229L2082.46 143.741L2063.44 149.921L2122.09 330.428ZM2405.92 253.174C2412.44 251.766 2418.96 250.382 2425.49 249.02L2386.05 63.4783L2366.48 67.6366L2405.92 253.174ZM2696.32 206.29C2702.94 205.575 2709.57 204.884 2716.21 204.215L2696.36 15.3894L2676.47 17.4799L2696.32 206.29Z" fill="#E9E9E9"/>
<g filter="url(#filter0_f_109_140)">
<path d="M5513.19 3341.45C5406.32 3340.89 5287.95 3333.87 5158.1 3320.39L5158.78 3190.79C5300.17 3201.13 5405.74 3206.49 5475.5 3206.85C5490.22 3206.93 5501.76 3202.83 5510.12 3194.55C5519.13 3185.64 5523.67 3173.82 5523.75 3159.1L5523.95 3120.7C5524.15 3082.3 5505.05 3063 5466.65 3062.8L5265.06 3061.75L5265.76 2927.35L5448.16 2928.3C5486.56 2928.51 5505.86 2909.41 5506.06 2871.01L5506.16 2851.81C5506.36 2813.41 5487.26 2794.11 5448.86 2793.91L5170.46 2792.45L5171.17 2658.05L5497.56 2659.76C5560.28 2660.09 5606.29 2674.73 5635.58 2703.68C5664.87 2732 5679.36 2775.27 5679.06 2833.51C5678.86 2871.91 5669.73 2903.22 5651.68 2927.45C5634.28 2951.04 5611.15 2967.56 5582.3 2977.01C5634.07 2991.36 5669.09 3026.1 5687.36 3081.24C5693.66 3101.11 5696.73 3124.17 5696.6 3150.41L5696.55 3160.01C5696.22 3222.73 5681.26 3268.73 5651.66 3298.01C5622.07 3327.3 5575.91 3341.78 5513.19 3341.45Z" fill="#F3F3F3"/>
</g>
<g filter="url(#filter1_f_109_140)">
<path d="M348.778 3195.64C480.566 3205.93 573.34 3211.22 627.099 3211.5C641.819 3211.58 653.361 3207.48 661.724 3199.2C670.731 3190.29 675.273 3178.47 675.35 3163.75L675.802 3077.35C613.656 3089.83 559.223 3095.94 512.504 3095.7L445.305 3095.35C401.786 3095.12 366.975 3081.82 340.872 3055.44C314.77 3029.06 301.833 2994.12 302.061 2950.6L302.714 2825.8C303.019 2767.56 317.965 2724.44 347.552 2696.43C377.143 2667.79 423.297 2653.63 486.017 2653.96L668.414 2654.91C731.133 2655.24 777.137 2669.88 806.426 2698.83C835.718 2727.15 850.212 2770.42 849.907 2828.66L848.148 3164.66C847.819 3227.38 832.858 3273.38 803.264 3302.67C773.671 3331.95 727.514 3346.43 664.795 3346.1C577.116 3345.64 471.551 3338.69 348.1 3325.24L348.778 3195.64ZM561.207 2961.55C597.687 2961.74 636.103 2958.75 676.456 2952.56L677.009 2846.96C677.21 2808.56 658.111 2789.26 619.711 2789.06L533.312 2788.6C494.913 2788.4 475.613 2807.5 475.411 2845.9L474.984 2927.5C474.934 2937.1 478.092 2945.12 484.458 2951.55C490.825 2957.98 498.808 2961.23 508.408 2961.28L561.207 2961.55Z" fill="#F3F3F3"/>
</g>
<g filter="url(#filter2_f_109_140)">
<path d="M2911.02 5005.96C2998.7 5006.41 3104.26 5013.37 3227.71 5026.81L3227.03 5156.41C3191.84 5154.31 3161.77 5152.55 3136.82 5151.14C3112.51 5149.09 3092.36 5147.71 3076.36 5146.98C3061.01 5145.62 3045.65 5144.26 3030.3 5142.9C3004.71 5141.49 2981.03 5140.72 2959.27 5140.61C2920.23 5140.41 2900.63 5156.3 2900.46 5188.3L2900.01 5274.7C2962.16 5262.23 3016.59 5256.11 3063.31 5256.36L3130.51 5256.71C3174.03 5256.94 3208.84 5270.24 3234.94 5296.62C3261.04 5322.99 3273.98 5357.94 3273.75 5401.46L3273.1 5526.26C3272.79 5584.5 3257.84 5627.94 3228.25 5656.59C3198.67 5684.59 3152.51 5698.43 3089.8 5698.1L2907.4 5697.15C2844.68 5696.82 2798.67 5682.5 2769.38 5654.18C2740.09 5625.23 2725.6 5581.63 2725.9 5523.39L2727.66 5187.4C2727.99 5124.68 2742.95 5078.68 2772.55 5049.39C2802.14 5020.11 2848.3 5005.63 2911.02 5005.96ZM3014.6 5390.5C2990.28 5390.38 2967.88 5391.54 2947.39 5393.99C2927.53 5396.45 2911.52 5398.28 2899.36 5399.5L2898.8 5505.1C2898.6 5543.5 2917.7 5562.8 2956.1 5563L3042.5 5563.45C3080.9 5563.65 3100.2 5544.55 3100.4 5506.15L3100.83 5424.55C3100.88 5414.95 3097.72 5406.94 3091.35 5400.5C3084.99 5394.07 3077 5390.83 3067.4 5390.78L3014.6 5390.5Z" fill="#F3F3F3"/>
</g>
<g filter="url(#filter3_f_109_140)">
<path d="M2693.4 969.824L2696.14 446.631L2585.54 484.453L2538.12 373.803L2716.12 297.934L2869.72 298.738L2866.2 970.729L2693.4 969.824Z" fill="#F3F3F3"/>
<path d="M3464.06 513.053C3463.78 567.452 3440.49 614.371 3394.21 653.809C3380.06 665.895 3364.64 677.975 3347.94 690.047L3140.76 837.765L3462.36 839.449L3461.65 973.847L2943.26 971.132L2944.21 788.735L3291.12 540.948L3291.37 492.949C3291.57 454.549 3272.47 435.249 3234.07 435.048L2965.27 433.64L2965.98 299.242L3273.17 300.851C3340.37 301.202 3388.93 316.817 3418.85 347.694C3449.41 377.934 3464.52 426.654 3464.17 493.853L3464.06 513.053Z" fill="#F3F3F3"/>
</g>
<defs>
<filter id="filter0_f_109_140" x="5150.1" y="2650.05" width="554.502" height="699.404" filterUnits="userSpaceOnUse" color-interpolation-filters="sRGB">
<feFlood flood-opacity="0" result="BackgroundImageFix"/>
<feBlend mode="normal" in="SourceGraphic" in2="BackgroundImageFix" result="shape"/>
<feGaussianBlur stdDeviation="4" result="effect1_foregroundBlur_109_140"/>
</filter>
<filter id="filter1_f_109_140" x="294.058" y="2645.95" width="563.854" height="708.156" filterUnits="userSpaceOnUse" color-interpolation-filters="sRGB">
<feFlood flood-opacity="0" result="BackgroundImageFix"/>
<feBlend mode="normal" in="SourceGraphic" in2="BackgroundImageFix" result="shape"/>
<feGaussianBlur stdDeviation="4" result="effect1_foregroundBlur_109_140"/>
</filter>
<filter id="filter2_f_109_140" x="2717.9" y="4997.95" width="563.854" height="708.156" filterUnits="userSpaceOnUse" color-interpolation-filters="sRGB">
<feFlood flood-opacity="0" result="BackgroundImageFix"/>
<feBlend mode="normal" in="SourceGraphic" in2="BackgroundImageFix" result="shape"/>
<feGaussianBlur stdDeviation="4" result="effect1_foregroundBlur_109_140"/>
</filter>
<filter id="filter3_f_109_140" x="2530.12" y="289.934" width="942.053" height="691.914" filterUnits="userSpaceOnUse" color-interpolation-filters="sRGB">
<feFlood flood-opacity="0" result="BackgroundImageFix"/>
<feBlend mode="normal" in="SourceGraphic" in2="BackgroundImageFix" result="shape"/>
<feGaussianBlur stdDeviation="4" result="effect1_foregroundBlur_109_140"/>
</filter>
<radialGradient id="paint0_radial_109_140" cx="0" cy="0" r="1" gradientUnits="userSpaceOnUse" gradientTransform="translate(3001 3000) rotate(90) scale(3000 10)">
<stop stop-color="white"/>
<stop offset="1" stop-color="white" stop-opacity="0"/>
</radialGradient>
<radialGradient id="paint1_radial_109_140" cx="0" cy="0" r="1" gradientUnits="userSpaceOnUse" gradientTransform="translate(3314.64 3015.39) rotate(90) scale(3000 10)">
<stop stop-color="white"/>
<stop offset="1" stop-color="white" stop-opacity="0"/>
</radialGradient>
<radialGradient id="paint2_radial_109_140" cx="0" cy="0" r="1" gradientUnits="userSpaceOnUse" gradientTransform="translate(3624.95 3063.48) rotate(90) scale(3000 10)">
<stop stop-color="white"/>
<stop offset="1" stop-color="white" stop-opacity="0"/>
</radialGradient>
<radialGradient id="paint3_radial_109_140" cx="0" cy="0" r="1" gradientUnits="userSpaceOnUse" gradientTransform="translate(3928.54 3143.74) rotate(90) scale(3000 10)">
<stop stop-color="white"/>
<stop offset="1" stop-color="white" stop-opacity="0"/>
</radialGradient>
<radialGradient id="paint4_radial_109_140" cx="0" cy="0" r="1" gradientUnits="userSpaceOnUse" gradientTransform="translate(11 6010) rotate(90) scale(3000 10)">
<stop stop-color="white"/>
<stop offset="1" stop-color="white" stop-opacity="0"/>
</radialGradient>
<radialGradient id="paint5_radial_109_140" cx="0" cy="0" r="1" gradientUnits="userSpaceOnUse" gradientTransform="translate(4222.07 3255.3) rotate(90) scale(3000 10)">
<stop stop-color="white"/>
<stop offset="1" stop-color="white" stop-opacity="0"/>
</radialGradient>
<radialGradient id="paint6_radial_109_140" cx="0" cy="0" r="1" gradientUnits="userSpaceOnUse" gradientTransform="translate(4502.34 3396.93) rotate(90) scale(3000 10)">
<stop stop-color="white"/>
<stop offset="1" stop-color="white" stop-opacity="0"/>
</radialGradient>
<radialGradient id="paint7_radial_109_140" cx="0" cy="0" r="1" gradientUnits="userSpaceOnUse" gradientTransform="translate(4502.34 3396.93) rotate(90) scale(3000 10)">
<stop stop-color="white"/>
<stop offset="1" stop-color="white" stop-opacity="0"/>
</radialGradient>
<radialGradient id="paint8_radial_109_140" cx="0" cy="0" r="1" gradientUnits="userSpaceOnUse" gradientTransform="translate(4766.27 3567.07) rotate(90) scale(3000 10)">
<stop stop-color="white"/>
<stop offset="1" stop-color="white" stop-opacity="0"/>
</radialGradient>
<radialGradient id="paint9_radial_109_140" cx="0" cy="0" r="1" gradientUnits="userSpaceOnUse" gradientTransform="translate(5010.96 3763.88) rotate(90) scale(3000 10)">
<stop stop-color="white"/>
<stop offset="1" stop-color="white" stop-opacity="0"/>
</radialGradient>
<radialGradient id="paint10_radial_109_140" cx="0" cy="0" r="1" gradientUnits="userSpaceOnUse" gradientTransform="translate(5233.74 3985.18) rotate(90) scale(3000 10)">
<stop stop-color="white"/>
<stop offset="1" stop-color="white" stop-opacity="0"/>
</radialGradient>
<radialGradient id="paint11_radial_109_140" cx="0" cy="0" r="1" gradientUnits="userSpaceOnUse" gradientTransform="translate(5432.17 4228.55) rotate(90) scale(3000 10)">
<stop stop-color="white"/>
<stop offset="1" stop-color="white" stop-opacity="0"/>
</radialGradient>
<radialGradient id="paint12_radial_109_140" cx="0" cy="0" r="1" gradientUnits="userSpaceOnUse" gradientTransform="translate(5604.08 4491.34) rotate(90) scale(3000 10)">
<stop stop-color="white"/>
<stop offset="1" stop-color="white" stop-opacity="0"/>
</radialGradient>
<radialGradient id="paint13_radial_109_140" cx="0" cy="0" r="1" gradientUnits="userSpaceOnUse" gradientTransform="translate(5747.57 4770.65) rotate(90) scale(3000 10)">
<stop stop-color="white"/>
<stop offset="1" stop-color="white" stop-opacity="0"/>
</radialGradient>
<radialGradient id="paint14_radial_109_140" cx="0" cy="0" r="1" gradientUnits="userSpaceOnUse" gradientTransform="translate(5861.08 5063.44) rotate(90) scale(3000 10)">
<stop stop-color="white"/>
<stop offset="1" stop-color="white" stop-opacity="0"/>
</radialGradient>
<radialGradient id="paint15_radial_109_140" cx="0" cy="0" r="1" gradientUnits="userSpaceOnUse" gradientTransform="translate(5943.36 5366.48) rotate(90) scale(3000 10)">
<stop stop-color="white"/>
<stop offset="1" stop-color="white" stop-opacity="0"/>
</radialGradient>
<radialGradient id="paint16_radial_109_140" cx="0" cy="0" r="1" gradientUnits="userSpaceOnUse" gradientTransform="translate(5993.52 5676.47) rotate(90) scale(3000 10)">
<stop stop-color="white"/>
<stop offset="1" stop-color="white" stop-opacity="0"/>
</radialGradient>
</defs>
</svg>
